#!OML:ASF H:\ManfredETheater\Project 1\Capture day 1\Session 1\subject.ASF
:FULLY-SPECIFIED
:DEGREES
125
root 2.04846 18.0796 -4.52377 -188.711 -1.06417 179.592
lowerback 16.515 -0.558125 2.74207
upperback 2.65388 -0.565254 3.70792
thorax -6.39911 -0.541715 2.54795
lowerneck -14.3454 -0.90157 -2.1808
upperneck 22.0077 0.919346 -3.37768
head 9.32054 0.195449 -0.630855
rclavicle 1.07344e-014 -1.59028e-014
rhumerus -53.2154 4.44149 -30.2411
rradius 61.4882
rwrist -8.17129
rhand -23.6096 -1.05755
rfingers 7.12502
rthumb 2.85438 -31.0182
lclavicle 1.07344e-014 -1.59028e-014
lhumerus -47.4641 1.923 13.9432
lradius 101.005
lwrist 8.96398
lhand -31.9619 -0.657221
lfingers 7.12502
lthumb -5.21195 29.2587
rfemur -23.1091 9.56565 14.5971
rtibia 36.3075
rfoot 15.9009 -5.99582
rtoes 0.355643
lfemur -28.3372 7.29728 -17.7081
ltibia 46.7406
lfoot -5.79154 -6.07548
ltoes -0.093398
126
root 1.99761 17.7687 -4.95001 -188.954 -0.43673 179.558
lowerback 16.2035 -0.292388 2.75344
upperback 2.5392 -0.197871 3.7366
thorax -6.36052 -0.35357 2.48703
lowerneck -14.3222 -0.906454 -2.25834
upperneck 21.6746 0.867456 -3.32057
head 9.19931 0.164596 -0.604821
rclavicle -6.55989e-015 4.13472e-014
rhumerus -54.83 2.82333 -32.3466
rradius 62.2894
rwrist -8.49991
rhand -23.5194 -0.666368
rfingers 7.12502
rthumb 2.94152 -30.6258
lclavicle -6.55989e-015 4.13472e-014
lhumerus -50.7988 2.45973 14.9043
lradius 104.15
lwrist 8.82256
lhand -33.2628 0.0938995
lfingers 7.12502
lthumb -6.46788 29.9751
rfemur -22.402 9.64399 14.8485
rtibia 38.1242
rfoot 14.3106 -7.8959
rtoes 18.4493
lfemur -27.7096 7.09563 -17.8713
ltibia 47.49
lfoot -9.11551 -5.49318
ltoes 2.95652
127
root 1.94449 17.4846 -5.35216 -189.178 0.208217 179.54
lowerback 16.066 -0.652412 2.61666
upperback 2.431 0.382472 3.74631
thorax -6.43594 0.390204 2.39991
lowerneck -14.197 -0.92879 -2.30712
upperneck 21.2296 0.774735 -3.27691
head 9.02074 0.116822 -0.59257
rclavicle -6.95746e-016 -2.8625e-014
rhumerus -56.3057 0.8312 -34.4519
rradius 62.8543
rwrist -8.70267
rhand -23.4985 -0.309781
rfingers 7.12502
rthumb 2.96167 -30.269
lclavicle -6.95746e-016 -2.8625e-014
lhumerus -53.9749 3.2317 16.2817
lradius 107.174
lwrist 8.57505
lhand -34.7247 0.947242
lfingers 7.12502
lthumb -7.87904 30.7804
rfemur -21.8826 9.67287 15.0874
rtibia 40.47
rfoot 12.3496 -10.9752
rtoes 36.5883
lfemur -27.3372 6.72285 -18.0483
ltibia 48.8274
lfoot -12.4762 -4.45063
ltoes 4.27549
128
root 1.89074 17.1899 -5.73437 -189.335 0.831819 179.512
lowerback 16.109 -0.31318 2.67507
upperback 2.23652 0.830663 3.77712
thorax -6.67821 0.596063 2.30667
lowerneck -13.9836 -0.120566 -2.51439
upperneck 20.7146 0.427806 -3.04758
head 8.79356 -0.598543 -0.605852
rclavicle 1.39149e-015 -1.74931e-014
rhumerus -57.5255 -1.52903 -36.5695
rradius 63.1676
rwrist -8.80523
rhand -23.585 -0.0445456
rfingers 7.12502
rthumb 2.87815 -30.0049
lclavicle 1.39149e-015 -1.74931e-014
lhumerus -56.9393 4.33524 18.117
lradius 110.029
lwrist 8.18608
lhand -36.174 1.8216
lfingers 7.12502
lthumb -9.27765 31.5975
rfemur -21.7632 9.65373 15.2469
rtibia 43.4306
rfoot 10.1785 -14.7406
rtoes 49.2239
lfemur -27.436 6.21389 -18.2642
ltibia 50.9441
lfoot -15.5545 -2.97818
ltoes 3.93062
129
root 1.83838 16.9097 -6.08819 -189.464 1.40504 179.488
lowerback 16.3891 0.0211134 2.70392
upperback 2.05262 1.2892 3.82056
thorax -7.04053 0.809982 2.23881
lowerneck -13.7658 -0.201366 -2.4487
upperneck 20.0282 0.345353 -3.14482
head 8.52001 -0.605442 -0.648546
rclavicle 1.67476e-014 6.52014e-014
rhumerus -58.355 -4.22208 -38.7343
rradius 63.2341
rwrist -8.92125
rhand -23.8245 0.0878377
rfingers 7.12502
rthumb 2.64689 -29.8755
lclavicle 1.67476e-014 6.52014e-014
lhumerus -59.5823 5.88693 20.4854
lradius 112.632
lwrist 7.63762
lhand -37.6089 2.72022
lfingers 7.12502
lthumb -10.662 32.4297
rfemur -21.9742 9.58669 15.3611
rtibia 46.869
rfoot 7.87347 -18.6342
rtoes 56.5595
lfemur -27.8975 5.62491 -18.4877
ltibia 53.7445
lfoot -17.9199 -1.32325
ltoes 2.22818
130
root 1.78911 16.6491 -6.41494 -189.541 1.916 179.464
lowerback 16.8215 0.349721 2.68569
upperback 1.90695 1.7482 3.87819
thorax -7.44832 1.02801 2.20659
lowerneck -13.5609 -0.285264 -2.34176
upperneck 19.2275 0.266517 -3.3124
head 8.21301 -0.610028 -0.719384
rclavicle 7.35503e-015 5.88403e-014
rhumerus -58.7272 -7.12712 -41.0219
rradius 63.0857
rwrist -9.18733
rhand -24.2314 0.101346
rfingers 7.12502
rthumb 2.25389 -29.8665
lclavicle 7.35503e-015 5.88403e-014
lhumerus -61.7435 7.91046 23.4496
lradius 114.865
lwrist 6.94586
lhand -38.997 3.55411
lfingers 7.12502
lthumb -12.0008 33.1901
rfemur -22.5639 9.46391 15.4367
rtibia 50.7158
rfoot 5.60094 -22.0635
rtoes 60.4565
lfemur -28.703 5.0431 -18.7032
ltibia 57.1138
lfoot -19.4408 0.167921
ltoes -0.144638
131
root 1.74426 16.4129 -6.71701 -189.59 2.33194 179.368
lowerback 17.352 0.675181 2.54917
upperback 1.81879 2.18844 3.92913
thorax -7.85313 1.24232 2.23109
lowerneck -13.3526 -0.374957 -2.22248
upperneck 18.3356 0.181874 -3.51911
head 7.8779 -0.617567 -0.804079
rclavicle -2.17669e-014 -7.15625e-014
rhumerus -58.6276 -10.072 -43.532
rradius 62.7947
rwrist -9.67768
rhand -24.7686 0.0438752
rfingers 7.12502
rthumb 1.73507 -29.9288
lclavicle -2.17669e-014 -7.15625e-014
lhumerus -63.2459 10.3231 27.0481
lradius 116.594
lwrist 6.1861
lhand -40.3299 4.16907
lfingers 7.12502
lthumb -13.2858 33.7256
rfemur -23.4079 9.2267 15.4241
rtibia 54.7359
rfoot 2.58352 -24.1473
rtoes 61.6102
lfemur -29.6907 4.53011 -18.9707
ltibia 60.7441
lfoot -20.1718 1.24703
ltoes -3.73786
132
root 1.70477 16.2067 -6.99771 -189.658 2.64683 179.163
lowerback 17.9483 1.00362 2.26286
upperback 1.81566 2.6054 3.96171
thorax -8.20918 1.45283 2.3186
lowerneck -13.1677 -0.478681 -2.12038
upperneck 17.4031 0.0772809 -3.72697
head 7.53651 -0.635573 -0.887224
rclavicle 8.84592e-015 -3.97569e-014
rhumerus -58.0304 -12.8572 -46.3797
rradius 62.4314
rwrist -10.3539
rhand -25.3818 -0.0469244
rfingers 7.12502
rthumb 1.1428 -30.0236
lclavicle 8.84592e-015 -3.97569e-014
lhumerus -63.9093 12.9743 31.2614
lradius 117.688
lwrist 5.44369
lhand -41.5095 4.47426
lfingers 7.12502
lthumb -14.4226 33.9531
rfemur -24.3537 8.81428 15.3136
rtibia 58.7333
rfoot 0.416893 -25.7229
rtoes 62.1934
lfemur -30.6686 4.13261 -19.3025
ltibia 64.3509
lfoot -20.0186 1.60149
ltoes -5.80596
133
root 1.66904 16.0337 -7.26368 -189.795 2.84765 178.806
lowerback 18.5594 1.33272 1.83091
upperback 1.91146 2.98659 3.94849
thorax -8.47209 1.65313 2.44163
lowerneck -13.0129 -0.60173 -2.04844
upperneck 16.4862 -0.0608275 -3.89322
head 7.20804 -0.669842 -0.954737
rclavicle -6.06293e-015 -7.31528e-014
rhumerus -56.9323 -15.2508 -49.6729
rradius 62.0531
rwrist -11.0276
rhand -25.9244 -0.0297198
rfingers 7.12502
rthumb 0.618774 -30.0086
lclavicle -6.06293e-015 -7.31528e-014
lhumerus -63.6083 15.6131 35.997
lradius 118.046
lwrist 4.87734
lhand -42.5092 4.48443
lfingers 7.12502
lthumb -15.3857 33.8919
rfemur -25.217 8.20094 15.071
rtibia 62.5268
rfoot -0.862651 -26.9025
rtoes 62.6203
lfemur -31.4667 3.86814 -19.7423
ltibia 67.7012
lfoot -19.4477 1.38353
ltoes -7.90877
134
root 1.63507 15.8961 -7.52108 -190.033 2.96113 178.31
lowerback 19.1443 1.65426 1.29867
upperback 2.10298 3.32639 3.88243
thorax -8.61957 1.8389 2.57045
lowerneck -12.8812 -0.732977 -2.00092
upperneck 15.6443 -0.222182 -3.99483
head 6.91006 -0.715635 -0.999879
rclavicle 1.23246e-014 1.11319e-014
rhumerus -55.3237 -16.9819 -53.5032
rradius 61.709
rwrist -11.4802
rhand -26.2541 0.0943731
rfingers 7.12502
rthumb 0.300362 -29.8852
lclavicle 1.23246e-014 1.11319e-014
lhumerus -62.3603 17.9667 41.0647
lradius 117.625
lwrist 4.65082
lhand -43.1702 4.17962
lfingers 7.12502
lthumb -16.0223 33.5371
rfemur -25.8416 7.44719 14.6873
rtibia 65.985
rfoot -1.45417 -27.6767
rtoes 62.9127
lfemur -31.9217 3.81436 -20.2821
ltibia 70.61
lfoot -19.1343 1.01572
ltoes -10.6171
135
root 1.60121 15.7872 -7.77673 -190.359 3.02205 177.749
lowerback 19.64 1.95194 0.766218
upperback 2.36825 3.62467 3.7733
thorax -8.63527 2.00634 2.66229
lowerneck -12.7675 -0.861098 -1.96834
upperneck 14.9424 -0.392968 -4.02157
head 6.66197 -0.767347 -1.02057
rclavicle -7.00716e-015 1.59028e-015
rhumerus -53.2329 -17.7798 -57.8948
rradius 61.4397
rwrist -11.5178
rhand -26.2494 0.338854
rfingers 7.12502
rthumb 0.30482 -29.6407
lclavicle -7.00716e-015 1.59028e-015
lhumerus -60.3201 19.7872 46.2141
lradius 116.453
lwrist 4.9098
lhand -43.3866 3.65355
lfingers 7.12502
lthumb -16.2306 32.9941
rfemur -26.1132 6.63914 14.2035
rtibia 69.0292
rfoot -1.74234 -28.2158
rtoes 63.088
lfemur -32.0231 4.01149 -20.8392
ltibia 73.0728
lfoot -19.2453 0.39219
ltoes -12.997
136
root 1.56504 15.6984 -8.0344 -190.716 3.06673 177.196
lowerback 20.0053 2.20735 0.330023
upperback 2.66512 3.87978 3.63203
thorax -8.53662 2.15016 2.67789
lowerneck -12.6881 -0.970909 -1.93809
upperneck 14.4344 -0.550619 -3.97581
head 6.48325 -0.815199 -1.01855
rclavicle -3.67752e-015 -7.95139e-014
rhumerus -50.732 -17.4192 -62.771
rradius 61.263
rwrist -10.979
rhand -25.8481 0.700577
rfingers 7.12502
rthumb 0.69243 -29.278
lclavicle -3.67752e-015 -7.95139e-014
lhumerus -57.7361 20.9255 51.1786
lradius 114.601
lwrist 5.72329
lhand -43.1812 3.06083
lfingers 7.12502
lthumb -16.0328 32.4175
rfemur -26.1319 5.81867 13.6593
rtibia 71.6997
rfoot -1.63594 -28.4128
rtoes 63.2722
lfemur -31.8172 4.46627 -21.3359
ltibia 75.111
lfoot -19.6634 -0.496839
ltoes -14.6016
137
root 1.52475 15.6248 -8.2962 -191.078 3.176 176.779
lowerback 20.2524 2.40699 0.115043
upperback 2.95276 4.10753 3.48976
thorax -8.36906 2.2742 2.57692
lowerneck -12.6362 -1.0376 -1.86863
upperneck 14.1672 -0.662446 -3.89504
head 6.38712 -0.845643 -1.01041
rclavicle 1.00386e-014 2.22639e-014
rhumerus -47.9826 -15.7664 -67.9519
rradius 61.2191
rwrist -9.77295
rhand -25.0857 1.20479
rfingers 7.12502
rthumb 1.42882 -28.7702
lclavicle 1.00386e-014 2.22639e-014
lhumerus -54.9019 21.3321 55.7148
lradius 112.181
lwrist 7.0744
lhand -42.685 2.3825
lfingers 7.12502
lthumb -15.555 31.7769
rfemur -26.0011 5.10763 13.1858
rtibia 74.0716
rfoot -1.24187 -28.2721
rtoes 63.4748
lfemur -31.3824 5.24239 -21.6211
ltibia 76.8362
lfoot -20.0867 -1.7027
ltoes -15.8132
